<svg xmlns="http://www.w3.org/2000/svg" viewBox="0 0 16 16.015">
  <defs>
    <style>
      .cls-1 {
        fill: #fff;
        fill-rule: evenodd;
      }
    </style>
  </defs>
  <path id="location_4" class="cls-1" d="M396.245,232.49a1.008,1.008,0,0,0-.5,1.952c1.37.368,2.25.927,2.25,1.558,0,1.1-2.69,2-6,2s-6-.9-6-2c0-.631.88-1.19,2.25-1.558a1.007,1.007,0,1,0-.5-1.952c-2.147.565-3.755,1.671-3.755,3.51,0,2.95,4.13,4,8,4s8-1.05,8-4C400,234.161,398.392,233.055,396.245,232.49ZM391,231.858V236a1,1,0,0,0,2,0v-4.142a4,4,0,1,0-2,0ZM392,226a2,2,0,1,1-2,2A2,2,0,0,1,392,226Z" transform="translate(-383.99 -223.985)"/>
</svg>
