<svg xmlns="http://www.w3.org/2000/svg" viewBox="0 0 14 16">
  <defs>
    <style>
      .cls-1 {
        fill: #ffca27;
        fill-rule: evenodd;
      }
    </style>
  </defs>
  <path id="location_2" class="cls-1" d="M104,224a7.008,7.008,0,0,0-7,7c0,6.282,6,8.755,6.257,8.857a2,2,0,0,0,1.486,0C105,239.755,111,237.282,111,231a7.008,7.008,0,0,0-7-7Zm0,14s-5-2-5-7a5,5,0,0,1,10,0C109,236,104,238,104,238Zm0-10a3,3,0,1,0,3,3A3,3,0,0,0,104,228Zm0,4a1,1,0,1,1,1-1A1,1,0,0,1,104,232Z" transform="translate(-97 -224)"/>
</svg>
